ply
format ascii 1.0
element vertex 96
property float x
property float y
property float z
property uchar red
property uchar green
property uchar blue
element face 144
property list uchar int vertex_index
end_header
0.0 0.0 0.0 139 69 19
10.0 0.0 0.0 139 69 19
10.0 10.0 0.0 139 69 19
0.0 10.0 0.0 139 69 19
0.0 0.0 0.2 139 69 19
10.0 0.0 0.2 139 69 19
10.0 10.0 0.2 139 69 19
0.0 10.0 0.2 139 69 19
0.0 0.0 0.0 245 245 220
0.2 0.0 0.0 245 245 220
0.2 10.0 0.0 245 245 220
0.0 10.0 0.0 245 245 220
0.0 0.0 5.0 245 245 220
0.2 0.0 5.0 245 245 220
0.2 10.0 5.0 245 245 220
0.0 10.0 5.0 245 245 220
0.0 9.8 0.0 245 245 220
10.0 9.8 0.0 245 245 220
10.0 10.0 0.0 245 245 220
0.0 10.0 0.0 245 245 220
0.0 9.8 5.0 245 245 220
10.0 9.8 5.0 245 245 220
10.0 10.0 5.0 245 245 220
0.0 10.0 5.0 245 245 220
2.0 6.0 0.2 101 67 33
5.0 6.0 0.2 101 67 33
5.0 9.8 0.2 101 67 33
2.0 9.8 0.2 101 67 33
2.0 6.0 0.7 101 67 33
5.0 6.0 0.7 101 67 33
5.0 9.8 0.7 101 67 33
2.0 9.8 0.7 101 67 33
2.1 6.1 0.7 255 255 255
4.9 6.1 0.7 255 255 255
4.9 9.8 0.7 255 255 255
2.1 9.8 0.7 255 255 255
2.1 6.1 1.2 255 255 255
4.9 6.1 1.2 255 255 255
4.9 9.8 1.2 255 255 255
2.1 9.8 1.2 255 255 255
2.5 8.5 1.2 173 216 230
4.5 8.5 1.2 173 216 230
4.5 9.5 1.2 173 216 230
2.5 9.5 1.2 173 216 230
2.5 8.5 1.4 173 216 230
4.5 8.5 1.4 173 216 230
4.5 9.5 1.4 173 216 230
2.5 9.5 1.4 173 216 230
5.5 8.5 0.2 101 67 33
7.0 8.5 0.2 101 67 33
7.0 9.8 0.2 101 67 33
5.5 9.8 0.2 101 67 33
5.5 8.5 1.5 101 67 33
7.0 8.5 1.5 101 67 33
7.0 9.8 1.5 101 67 33
5.5 9.8 1.5 101 67 33
7.5 2.0 0.2 210 180 140
9.5 2.0 0.2 210 180 140
9.5 5.0 0.2 210 180 140
7.5 5.0 0.2 210 180 140
7.5 2.0 2.5 210 180 140
9.5 2.0 2.5 210 180 140
9.5 5.0 2.5 210 180 140
7.5 5.0 2.5 210 180 140
8.0 3.0 2.5 50 50 50
9.0 3.0 2.5 50 50 50
9.0 4.0 2.5 50 50 50
8.0 4.0 2.5 50 50 50
8.0 3.0 4.0 50 50 50
9.0 3.0 4.0 50 50 50
9.0 4.0 4.0 50 50 50
8.0 4.0 4.0 50 50 50
5.5 2.5 0.2 200 50 50
7.0 2.5 0.2 200 50 50
7.0 4.5 0.2 200 50 50
5.5 4.5 0.2 200 50 50
5.5 2.5 2.0 200 50 50
7.0 2.5 2.0 200 50 50
7.0 4.5 2.0 200 50 50
5.5 4.5 2.0 200 50 50
1.0 0.2 0.2 220 220 220
4.0 0.2 0.2 220 220 220
4.0 1.5 0.2 220 220 220
1.0 1.5 0.2 220 220 220
1.0 0.2 6.0 220 220 220
4.0 0.2 6.0 220 220 220
4.0 1.5 6.0 220 220 220
1.0 1.5 6.0 220 220 220
-0.1 4.0 2.0 135 206 235
0.3 4.0 2.0 135 206 235
0.3 7.0 2.0 135 206 235
-0.1 7.0 2.0 135 206 235
-0.1 4.0 4.5 135 206 235
0.3 4.0 4.5 135 206 235
0.3 7.0 4.5 135 206 235
-0.1 7.0 4.5 135 206 235
3 0 2 1
3 0 3 2
3 4 5 6
3 4 6 7
3 0 1 5
3 0 5 4
3 1 2 6
3 1 6 5
3 2 3 7
3 2 7 6
3 3 0 4
3 3 4 7
3 8 10 9
3 8 11 10
3 12 13 14
3 12 14 15
3 8 9 13
3 8 13 12
3 9 10 14
3 9 14 13
3 10 11 15
3 10 15 14
3 11 8 12
3 11 12 15
3 16 18 17
3 16 19 18
3 20 21 22
3 20 22 23
3 16 17 21
3 16 21 20
3 17 18 22
3 17 22 21
3 18 19 23
3 18 23 22
3 19 16 20
3 19 20 23
3 24 26 25
3 24 27 26
3 28 29 30
3 28 30 31
3 24 25 29
3 24 29 28
3 25 26 30
3 25 30 29
3 26 27 31
3 26 31 30
3 27 24 28
3 27 28 31
3 32 34 33
3 32 35 34
3 36 37 38
3 36 38 39
3 32 33 37
3 32 37 36
3 33 34 38
3 33 38 37
3 34 35 39
3 34 39 38
3 35 32 36
3 35 36 39
3 40 42 41
3 40 43 42
3 44 45 46
3 44 46 47
3 40 41 45
3 40 45 44
3 41 42 46
3 41 46 45
3 42 43 47
3 42 47 46
3 43 40 44
3 43 44 47
3 48 50 49
3 48 51 50
3 52 53 54
3 52 54 55
3 48 49 53
3 48 53 52
3 49 50 54
3 49 54 53
3 50 51 55
3 50 55 54
3 51 48 52
3 51 52 55
3 56 58 57
3 56 59 58
3 60 61 62
3 60 62 63
3 56 57 61
3 56 61 60
3 57 58 62
3 57 62 61
3 58 59 63
3 58 63 62
3 59 56 60
3 59 60 63
3 64 66 65
3 64 67 66
3 68 69 70
3 68 70 71
3 64 65 69
3 64 69 68
3 65 66 70
3 65 70 69
3 66 67 71
3 66 71 70
3 67 64 68
3 67 68 71
3 72 74 73
3 72 75 74
3 76 77 78
3 76 78 79
3 72 73 77
3 72 77 76
3 73 74 78
3 73 78 77
3 74 75 79
3 74 79 78
3 75 72 76
3 75 76 79
3 80 82 81
3 80 83 82
3 84 85 86
3 84 86 87
3 80 81 85
3 80 85 84
3 81 82 86
3 81 86 85
3 82 83 87
3 82 87 86
3 83 80 84
3 83 84 87
3 88 90 89
3 88 91 90
3 92 93 94
3 92 94 95
3 88 89 93
3 88 93 92
3 89 90 94
3 89 94 93
3 90 91 95
3 90 95 94
3 91 88 92
3 91 92 95