ply
format ascii 1.0
comment Created by Gemini - Procedural Vanity Sink
element vertex 44
property float x
property float y
property float z
property uchar red
property uchar green
property uchar blue
element face 31
property list uchar int vertex_indices
end_header
-0.50 0.00 0.50 210 180 140
0.50 0.00 0.50 210 180 140
0.50 0.80 0.50 210 180 140
-0.50 0.80 0.50 210 180 140
-0.50 0.00 0.00 210 180 140
0.50 0.00 0.00 210 180 140
0.50 0.80 0.00 210 180 140
-0.50 0.80 0.00 210 180 140
-0.52 0.80 0.52 245 245 245
0.52 0.80 0.52 245 245 245
0.52 0.90 0.52 245 245 245
-0.52 0.90 0.52 245 245 245
-0.52 0.80 0.00 245 245 245
0.52 0.80 0.00 245 245 245
0.52 0.90 0.00 245 245 245
-0.52 0.90 0.00 245 245 245
-0.40 0.90 0.40 245 245 245
0.40 0.90 0.40 245 245 245
0.40 0.90 0.10 245 245 245
-0.40 0.90 0.10 245 245 245
-0.30 0.82 0.30 245 245 245
0.30 0.82 0.30 245 245 245
0.30 0.82 0.15 245 245 245
-0.30 0.82 0.15 245 245 245
-0.05 0.90 0.08 200 200 210
0.05 0.90 0.08 200 200 210
0.05 1.05 0.08 200 200 210
-0.05 1.05 0.08 200 200 210
-0.05 0.90 0.02 200 200 210
0.05 0.90 0.02 200 200 210
0.05 1.05 0.02 200 200 210
-0.05 1.05 0.02 200 200 210
-0.02 1.00 0.20 200 200 210
0.02 1.00 0.20 200 200 210
0.02 1.05 0.20 200 200 210
-0.02 1.05 0.20 200 200 210
-0.02 1.00 0.08 200 200 210
0.02 1.00 0.08 200 200 210
0.02 1.05 0.08 200 200 210
-0.02 1.05 0.08 200 200 210
-0.40 1.10 0.01 170 200 220
0.40 1.10 0.01 170 200 220
0.40 1.70 0.01 170 200 220
-0.40 1.70 0.01 170 200 220
4 0 1 2 3
4 5 4 7 6
4 4 0 3 7
4 1 5 6 2
4 4 5 1 0
4 8 9 10 11
4 13 12 15 14
4 12 8 11 15
4 9 13 14 10
4 12 13 9 8
4 11 10 17 16
4 14 15 19 18
4 15 11 16 19
4 10 14 18 17
4 16 17 21 20
4 18 19 23 22
4 19 16 20 23
4 17 18 22 21
4 20 21 22 23
4 24 25 26 27
4 29 28 31 30
4 28 24 27 31
4 25 29 30 26
4 27 26 30 31
4 32 33 34 35
4 37 36 39 38
4 36 32 35 39
4 33 37 38 34
4 35 34 38 39
4 36 37 33 32
4 40 41 42 43