ply
format ascii 1.0
comment Created by Gemini - Procedural Geometry
element vertex 60
property float x
property float y
property float z
property uchar red
property uchar green
property uchar blue
element face 38
property list uchar int vertex_indices
end_header
-1.00 0.00 0.00 150 150 150
1.00 0.00 0.00 150 150 150
1.00 1.50 0.00 150 150 150
-1.00 1.50 0.00 150 150 150
-0.30 0.05 0.001 100 100 100
0.30 0.05 0.001 100 100 100
0.30 0.80 0.001 100 100 100
-0.30 0.80 0.001 100 100 100
-0.20 0.20 0.20 245 245 245
0.20 0.20 0.20 245 245 245
0.20 0.50 0.20 245 245 245
0.10 0.65 0.20 245 245 245
0.00 0.70 0.20 245 245 245
-0.10 0.65 0.20 245 245 245
-0.20 0.50 0.20 245 245 245
-0.20 0.20 0.40 245 245 245
0.20 0.20 0.40 245 245 245
0.20 0.50 0.40 245 245 245
0.10 0.65 0.40 245 245 245
0.00 0.70 0.40 245 245 245
-0.10 0.65 0.40 245 245 245
-0.20 0.50 0.40 245 245 245
-0.20 0.20 0.40 255 255 255
0.20 0.20 0.40 255 255 255
0.20 0.50 0.40 255 255 255
0.10 0.65 0.40 255 255 255
0.00 0.70 0.40 255 255 255
-0.10 0.65 0.40 255 255 255
-0.20 0.50 0.40 255 255 255
-0.20 0.20 0.43 255 255 255
0.20 0.20 0.43 255 255 255
0.20 0.50 0.43 255 255 255
0.10 0.65 0.43 255 255 255
0.00 0.70 0.43 255 255 255
-0.10 0.65 0.43 255 255 255
-0.20 0.50 0.43 255 255 255
-0.15 0.20 0.00 240 240 240
0.15 0.20 0.00 240 240 240
0.15 0.55 0.00 240 240 240
-0.15 0.55 0.00 240 240 240
-0.15 0.20 0.20 240 240 240
0.15 0.20 0.20 240 240 240
0.15 0.55 0.20 240 240 240
-0.15 0.55 0.20 240 240 240
-0.25 0.00 0.40 245 245 245
0.25 0.00 0.40 245 245 245
0.25 0.20 0.40 245 245 245
-0.25 0.20 0.40 245 245 245
-0.25 0.00 0.80 245 245 245
0.25 0.00 0.80 245 245 245
0.25 0.20 0.80 245 245 245
-0.25 0.20 0.80 245 245 245
0.15 0.05 0.80 180 180 190
0.22 0.05 0.80 180 180 190
0.22 0.12 0.80 180 180 190
0.15 0.12 0.80 180 180 190
0.15 0.05 0.83 180 180 190
0.22 0.05 0.83 180 180 190
0.22 0.12 0.83 180 180 190
0.15 0.12 0.83 180 180 190
4 0 1 2 3
4 4 5 6 7
7 8 14 13 12 11 10 9
7 15 16 17 18 19 20 21
4 8 9 16 15
4 9 10 17 16
4 10 11 18 17
4 11 12 19 18
4 12 13 20 19
4 13 14 21 20
4 14 8 15 21
7 22 28 27 26 25 24 23
7 29 30 31 32 33 34 35
4 22 23 30 29
4 23 24 31 30
4 24 25 32 31
4 25 26 33 32
4 26 27 34 33
4 27 28 35 34
4 28 22 29 35
4 36 39 38 37
4 40 41 42 43
4 36 37 41 40
4 38 39 43 42
4 36 40 43 39
4 37 38 42 41
4 44 47 46 45
4 48 49 50 51
4 44 45 49 48
4 46 47 51 50
4 44 48 51 47
4 45 46 50 49
4 52 55 54 53
4 56 57 58 59
4 52 53 57 56
4 54 55 59 58
4 52 56 59 55
4 53 54 58 57